<svg width="100" height="95" viewBox="0 0 100 95" fill="none" xmlns="http://www.w3.org/2000/svg">
<rect x="4.59668" y="4.59668" width="89.9174" height="89.9174" rx="10" fill="#515062"/>
<path d="M83.4142 53.5007C82.6332 52.7197 82.6332 51.4533 83.4142 50.6723L85.6723 48.4142C86.4533 47.6332 87.7197 47.6332 88.5007 48.4142L98.5311 58.4446C99.9357 59.8492 99.9357 62.1265 98.5311 63.5311C97.1265 64.9357 94.8492 64.9357 93.4446 63.5311L83.4142 53.5007Z" fill="#515062"/>
<rect x="1" y="1" width="89.9174" height="89.9174" rx="10" fill="#AAAAAA" stroke="#503B73" stroke-width="2"/>
<rect x="11.7901" y="11.7901" width="1.79835" height="71.9339" rx="0.899174" fill="#503B73"/>
<rect x="8.19337" y="80.1273" width="1.79835" height="71.9339" rx="0.899174" transform="rotate(-90 8.19337 80.1273)" fill="#503B73"/>
<ellipse cx="70.2364" cy="16.286" rx="0.899174" ry="0.899174" fill="#666666"/>
<ellipse cx="66.6397" cy="19.8827" rx="0.899174" ry="0.899174" fill="#666666"/>
<ellipse cx="59.4463" cy="27.076" rx="0.899174" ry="0.899174" fill="#666666"/>
<ellipse cx="63.043" cy="30.6727" rx="0.899174" ry="0.899174" fill="#666666"/>
<ellipse cx="66.6397" cy="27.076" rx="0.899174" ry="0.899174" fill="#666666"/>
<ellipse cx="70.2364" cy="23.4793" rx="0.899174" ry="0.899174" fill="#666666"/>
<ellipse cx="55.8496" cy="30.6727" rx="0.899174" ry="0.899174" fill="#666666"/>
<ellipse cx="63.043" cy="37.8661" rx="0.899174" ry="0.899174" fill="#666666"/>
<ellipse cx="59.4463" cy="34.2694" rx="0.899174" ry="0.899174" fill="#666666"/>
<ellipse cx="77.4298" cy="30.6727" rx="0.899174" ry="0.899174" fill="#666666"/>
<ellipse cx="73.8331" cy="34.2694" rx="0.899174" ry="0.899174" fill="#666666"/>
<ellipse cx="70.2364" cy="37.8661" rx="0.899174" ry="0.899174" fill="#666666"/>
<ellipse cx="55.8496" cy="23.4793" rx="0.899174" ry="0.899174" fill="#666666"/>
<ellipse cx="59.4463" cy="19.8827" rx="0.899174" ry="0.899174" fill="#666666"/>
<ellipse cx="63.043" cy="16.286" rx="0.899174" ry="0.899174" fill="#666666"/>
<ellipse cx="77.4298" cy="23.4793" rx="0.899174" ry="0.899174" fill="#666666"/>
<ellipse cx="66.6397" cy="34.2694" rx="0.899174" ry="0.899174" fill="#666666"/>
<ellipse cx="70.2364" cy="30.6727" rx="0.899174" ry="0.899174" fill="#666666"/>
<ellipse cx="73.8331" cy="27.076" rx="0.899174" ry="0.899174" fill="#666666"/>
<ellipse cx="73.8331" cy="19.8827" rx="0.899174" ry="0.899174" fill="#666666"/>
<ellipse cx="63.043" cy="23.4793" rx="0.899174" ry="0.899174" fill="#666666"/>
<path d="M66.6399 9.19339C76.5161 9.19348 84.5227 17.1999 84.5227 27.0762C84.5226 36.9524 76.516 44.9589 66.6399 44.959C56.7636 44.959 48.7571 36.9524 48.757 27.0762C48.757 17.1999 56.7636 9.19339 66.6399 9.19339Z" stroke="#503B73" stroke-width="2"/>
<path d="M66.6394 14.5884C73.536 14.5884 79.1275 20.1792 79.1277 27.0757C79.1277 33.9725 73.5361 39.564 66.6394 39.564C59.7428 39.5639 54.1521 33.9724 54.1521 27.0757C54.1522 20.1793 59.7429 14.5886 66.6394 14.5884Z" stroke="#503B73" stroke-width="2"/>
<mask id="path-29-inside-1_0_1" fill="white">
<path d="M76.5306 42.5802L80.3454 38.7653L85.4319 43.8518L81.6171 47.6667L76.5306 42.5802Z"/>
</mask>
<path d="M80.3454 38.7653L78.9312 40.1795L84.0177 45.266L85.4319 43.8518L86.8462 42.4376L81.7597 37.3511L80.3454 38.7653ZM81.6171 47.6667L83.0313 46.2524L77.9448 41.166L76.5306 42.5802L75.1164 43.9944L80.2029 49.0809L81.6171 47.6667Z" fill="#503B73" mask="url(#path-29-inside-1_0_1)"/>
<path d="M82.2486 46.7414L84.5067 44.4833C84.8972 44.0928 85.5304 44.0928 85.9209 44.4833L95.9516 54.514C96.9653 55.5281 96.9655 57.1723 95.9516 58.1863C94.9376 59.2002 93.2934 59.2001 92.2793 58.1863L82.2486 48.1556C81.8581 47.7651 81.8581 47.1319 82.2486 46.7414Z" fill="#AAAAAA" stroke="#503B73" stroke-width="2"/>
</svg>
