<svg width="56" height="53" viewBox="0 0 56 53" fill="none" xmlns="http://www.w3.org/2000/svg">
<rect x="3" y="2.99999" width="50" height="50" rx="5" fill="#515062"/>
<path d="M46.7071 29.5355C46.3166 29.145 46.3166 28.5118 46.7071 28.1213L48.1213 26.7071C48.5118 26.3166 49.145 26.3166 49.5355 26.7071L55.1924 32.364C55.9734 33.145 55.9734 34.4113 55.1924 35.1924V35.1924C54.4113 35.9734 53.145 35.9734 52.364 35.1924L46.7071 29.5355Z" fill="#515062"/>
<rect x="1" y="1" width="50" height="50" rx="5" fill="#AAAAAA" stroke="#503B73"/>
<rect x="7.00001" y="7" width="1" height="40" rx="0.5" fill="#503B73"/>
<rect x="4.99999" y="45" width="1" height="40" rx="0.5" transform="rotate(-90 4.99999 45)" fill="#503B73"/>
<ellipse cx="39.5" cy="9.5" rx="0.5" ry="0.5" fill="#666666"/>
<ellipse cx="37.5" cy="11.5" rx="0.5" ry="0.5" fill="#666666"/>
<ellipse cx="33.5" cy="15.5" rx="0.5" ry="0.5" fill="#666666"/>
<ellipse cx="35.5" cy="17.5" rx="0.5" ry="0.5" fill="#666666"/>
<ellipse cx="37.5" cy="15.5" rx="0.5" ry="0.5" fill="#666666"/>
<ellipse cx="39.5" cy="13.5" rx="0.5" ry="0.5" fill="#666666"/>
<ellipse cx="31.5" cy="17.5" rx="0.5" ry="0.5" fill="#666666"/>
<ellipse cx="35.5" cy="21.5" rx="0.5" ry="0.5" fill="#666666"/>
<ellipse cx="33.5" cy="19.5" rx="0.5" ry="0.5" fill="#666666"/>
<ellipse cx="43.5" cy="17.5" rx="0.5" ry="0.5" fill="#666666"/>
<ellipse cx="41.5" cy="19.5" rx="0.5" ry="0.5" fill="#666666"/>
<ellipse cx="39.5" cy="21.5" rx="0.5" ry="0.5" fill="#666666"/>
<ellipse cx="31.5" cy="13.5" rx="0.5" ry="0.5" fill="#666666"/>
<ellipse cx="33.5" cy="11.5" rx="0.5" ry="0.5" fill="#666666"/>
<ellipse cx="35.5" cy="9.5" rx="0.5" ry="0.5" fill="#666666"/>
<ellipse cx="43.5" cy="13.5" rx="0.5" ry="0.5" fill="#666666"/>
<ellipse cx="37.5" cy="19.5" rx="0.5" ry="0.5" fill="#666666"/>
<ellipse cx="39.5" cy="17.5" rx="0.5" ry="0.5" fill="#666666"/>
<ellipse cx="41.5" cy="15.5" rx="0.5" ry="0.5" fill="#666666"/>
<ellipse cx="41.5" cy="11.5" rx="0.5" ry="0.5" fill="#666666"/>
<ellipse cx="35.5" cy="13.5" rx="0.5" ry="0.5" fill="#666666"/>
<path d="M37.5 5.49999C43.0228 5.49999 47.5 9.97715 47.5 15.5C47.5 21.0228 43.0228 25.5 37.5 25.5C31.9772 25.5 27.5 21.0228 27.5 15.5C27.5 9.97715 31.9772 5.49999 37.5 5.49999Z" stroke="#503B73"/>
<circle cx="37.5" cy="15.5" r="7" stroke="#503B73"/>
<mask id="path-29-inside-1_0_1" fill="white">
<path d="M43 24.1213L45.1213 22L47.9497 24.8284L45.8284 26.9497L43 24.1213Z"/>
</mask>
<path d="M45.1213 22L44.4142 22.7071L47.2426 25.5355L47.9497 24.8284L48.6569 24.1213L45.8284 21.2929L45.1213 22ZM45.8284 26.9497L46.5355 26.2426L43.7071 23.4142L43 24.1213L42.2929 24.8284L45.1213 27.6568L45.8284 26.9497Z" fill="#503B73" mask="url(#path-29-inside-1_0_1)"/>
<path d="M46.0607 26.4749L47.4749 25.0607C47.6701 24.8654 47.9867 24.8654 48.182 25.0607L53.8388 30.7175C54.4246 31.3033 54.4246 32.253 53.8388 32.8388C53.253 33.4246 52.3033 33.4246 51.7175 32.8388L46.0607 27.182L45.9964 27.1039C45.8681 26.9098 45.8897 26.6458 46.0607 26.4749Z" fill="#AAAAAA" stroke="#503B73"/>
</svg>
